# xmcd
#
# Track frame offsets:
#	150
#	16476
#	28964
#	44040
#	58161
#	73842
#	90160
#	107083
#	121950
#	132905
#	144525
#	159877
#	173917
#	191988
#	211510
#	230002
#	251564
#	269581
#
# Disc length: 3723 seconds
#
# Revision: 2
# Processed by: cddbd v1.5.2PL0 Copyright (c) Steve Scherf et al.
# Submitted via: EasyCDDAExtractor 2010.6.0.0
#
DISCID=0b0e8912
DTITLE=Belanova - Fantasia Pop
DYEAR=2008
DGENRE=Latin
TTITLE0=Baila mi corazón
TTITLE1=One, two, three, Go! (1,2,3, Go!)
TTITLE2=Por esta vez
TTITLE3=Rockstar
TTITLE4=Paso el tiempo
TTITLE5=Vestida de azul
TTITLE6=Cada que...
TTITLE7=Aún
TTITLE8=Bye Bye
TTITLE9=Toma mi mano
TTITLE10=Dulce fantasia
TTITLE11=Mirame
TTITLE12=Baila mi corazón (Mijangos and Elorza Bossa remix)
TTITLE13=Baila mi corazón (Mario Ochoa remix)
TTITLE14=Baila mi corazón (Imazure Latin Soul mix)
TTITLE15=Cada que... (DJ Raff remix)
TTITLE16=Cada que... (Mood-Fu remix)
TTITLE17=Toma mi mano (demo version)
EXTD=YEAR: 2008
EXTT0=
EXTT1=
EXTT2=
EXTT3=
EXTT4=
EXTT5=
EXTT6=
EXTT7=
EXTT8=
EXTT9=
EXTT10=
EXTT11=
EXTT12=
EXTT13=
EXTT14=
EXTT15=
EXTT16=
EXTT17=
PLAYORDER=
